<svg fill="#3C00A6" viewBox="-11.76 -11.76 79.52 79.52" xmlns="http://www.w3.org/2000/svg" transform="rotate(90)" stroke="#3C00A6" stroke-width="4.2"><g id="SVGRepo_bgCarrier" stroke-width="0" transform="translate(0,0), scale(1)"><path transform="translate(-11.76, -11.76), scale(4.97)" fill="#ffffff" d="M9.166.33a2.25 2.25 0 00-2.332 0l-5.25 3.182A2.25 2.25 0 00.5 5.436v5.128a2.25 2.25 0 001.084 1.924l5.25 3.182a2.25 2.25 0 002.332 0l5.25-3.182a2.25 2.25 0 001.084-1.924V5.436a2.25 2.25 0 00-1.084-1.924L9.166.33z" strokewidth="0"></path></g><g id="SVGRepo_tracerCarrier" stroke-linecap="round" stroke-linejoin="round"></g><g id="SVGRepo_iconCarrier"><path d="M 7.5860 42.9414 L 23.8516 52.1758 C 26.6407 53.7695 29.3126 53.7930 32.1485 52.1758 L 48.4141 42.9414 C 50.5938 41.6992 51.7890 40.4336 51.7890 37.0352 L 51.7890 18.8008 C 51.7890 15.4961 50.5703 14.3008 48.5783 13.1523 L 32.2657 3.8711 C 29.3595 2.2070 26.5704 2.2305 23.7344 3.8711 L 7.4219 13.1523 C 5.4297 14.3008 4.2110 15.4961 4.2110 18.8008 L 4.2110 37.0352 C 4.2110 40.4336 5.4063 41.6992 7.5860 42.9414 Z"></path></g></svg>